<svg width="112" height="208" viewBox="0 0 112 208" fill="none" xmlns="http://www.w3.org/2000/svg">
<path d="M106.5 207.5C81.3103 180.797 62.6911 154.739 53.4274 131.5L45.4116 138.5C57.4401 160.527 78.2331 184.014 106.5 207.5Z" fill="#399748"/>
<path d="M0 0C28.8739 28.3717 48.4145 56.2392 57.3607 80.5L64.9478 72C51.6232 47.0875 27.8516 21.9004 0 0Z" fill="#FEC831"/>
<path d="M59 69.5C74.9504 52.4304 98 65 105 80.5C96.5 53 71.2061 37.5 50.2243 58.316C28.9131 79.4587 28.5037 107.538 45.4116 138.5L53.4274 131.5C43.5676 106.766 44.3059 85.2253 59 69.5Z" fill="#399748"/>
<path d="M51.5 139C34 157.5 13 143.5 5 129.5C12.5 155 39.4986 174.967 62.5 148.5C81.6225 126.496 79.6104 99.4142 64.9478 72L57.3607 80.5C66.2301 104.553 64.6862 125.06 51.5 139Z" fill="#FEC831"/>
</svg>
