<svg width="296" height="191" viewBox="0 0 296 191" fill="none" xmlns="http://www.w3.org/2000/svg">
<path fill-rule="evenodd" clip-rule="evenodd" d="M98.4978 168.555C55.8157 168.555 23.4977 134.645 23.4977 89.2645C23.4977 54.8553 46.5 23.9368 82.4978 23.9368C106.059 23.9368 123.953 36.2932 129.036 55.362L72.9978 57.3487C72.9978 57.3487 49 62.8342 49 86.771C49 110.708 73.2354 125.22 98.4978 126.167C123.012 127.086 149.17 105.786 153.783 76.1064C213.356 74.4569 283.998 74.8026 283.998 74.8026C283.998 74.8026 295.498 73.8052 295.498 61.8368C295.498 49.8684 283.998 49.8684 283.998 49.8684L152.951 54.5142C145.952 26.2629 116.135 0 82.4978 0C38 0 -0.000897369 42.8868 -0.000488278 89.2645C9.48785e-09 144.618 48.9999 191.495 98.4978 190.996C156.495 190.412 165 133.647 165 133.647C165 133.647 166 120.408 154.498 119.684C142.995 118.961 141.5 131.653 141.5 131.653C141.5 131.653 135 168.555 98.4978 168.555ZM98.4977 103.726C80.9999 103.726 69.4784 87.8986 72.9977 83.2802C75.364 80.1748 98.8453 78.1943 129.346 76.9349C125.901 91.7442 114.886 103.726 98.4977 103.726Z" fill="#E8306B"/>
</svg>
